<svg version="1.1" id="Layer_1" xmlns="http://www.w3.org/2000/svg" xmlns:xlink="http://www.w3.org/1999/xlink" x="0px" y="0px"
	 width="100%" viewBox="0 0 210 210" enable-background="new 0 0 210 210" xml:space="preserve">
<path fill="#F8F8F8" opacity="1.000000" stroke="none" 
	d="
M94.000000,211.000000 
	C62.685028,211.000000 31.870056,211.000000 1.027542,211.000000 
	C1.027542,141.060059 1.027542,71.120102 1.027542,1.090071 
	C70.898163,1.090071 140.796478,1.090071 210.847397,1.090071 
	C210.847397,70.999748 210.847397,140.999832 210.847397,211.000000 
	C172.120377,211.000000 133.310181,211.000000 94.000000,211.000000 
M187.909805,150.499847 
	C187.908752,114.182899 187.957108,77.865784 187.835510,41.549244 
	C187.822342,37.616791 186.893738,33.676598 186.263855,29.760241 
	C185.701859,26.266146 183.691116,24.774570 179.997375,24.865395 
	C171.839340,25.065989 163.672974,24.925699 155.509995,24.926996 
	C143.930481,24.928837 143.862106,24.977419 142.192001,36.483143 
	C142.025894,37.627354 142.081009,38.807739 142.080643,39.971348 
	C142.067230,82.452095 142.021011,124.932930 142.123154,167.413422 
	C142.131409,170.843094 143.153671,174.271957 143.722580,177.698227 
	C144.285431,181.087891 146.296753,182.264725 149.700241,182.211014 
	C159.526520,182.055878 169.367935,181.879562 179.180984,182.272064 
	C184.201157,182.472870 186.373947,180.215515 186.692566,175.838943 
	C187.282211,167.739258 187.523438,159.614197 187.909805,150.499847 
M80.747841,105.499924 
	C80.751266,127.152344 80.749603,148.804764 80.767265,170.457184 
	C80.768761,172.286133 80.789436,174.127319 80.992615,175.941391 
	C81.464958,180.158737 83.359337,182.413925 88.152061,182.259903 
	C97.635925,181.955078 107.151131,181.862076 116.624458,182.302948 
	C121.625114,182.535675 123.600677,180.231842 124.437691,176.018936 
	C124.758774,174.402802 124.834526,172.716232 124.836052,171.061569 
	C124.863358,141.414536 124.878181,111.767464 124.830551,82.120499 
	C124.827393,80.155762 124.455437,78.154457 123.986641,76.235741 
	C123.137253,72.759300 121.173409,71.160080 117.205673,71.302315 
	C108.056740,71.630264 98.888077,71.391075 89.727524,71.416824 
	C82.334023,71.437607 80.855942,72.860970 80.753265,80.516258 
	C80.646065,88.509399 80.741150,96.505249 80.747841,105.499924 
M62.902634,180.598785 
	C63.485771,178.569473 64.351097,176.571548 64.581177,174.502960 
	C64.873978,171.870483 64.651779,169.180786 64.652718,166.515762 
	C64.658173,151.025299 64.667847,135.534851 64.667984,120.044388 
	C64.668053,112.401817 63.809029,111.539917 56.089321,111.523224 
	C47.927719,111.505569 39.766037,111.519615 31.604395,111.525772 
	C22.957497,111.532295 21.946234,112.389496 21.868586,121.185234 
	C21.743612,135.342087 21.817913,149.500885 21.843155,163.658798 
	C21.849981,167.486969 21.807024,171.328476 22.100134,175.139771 
	C22.532623,180.763397 24.054213,182.114288 29.512781,182.137878 
	C38.840187,182.178192 48.168289,182.206696 57.494980,182.119888 
	C59.085690,182.105072 60.670818,181.490570 62.902634,180.598785 
z"/>
<path fill="#040404" opacity="1.000000" stroke="none" 
	d="
M187.909790,150.999786 
	C187.523438,159.614197 187.282211,167.739258 186.692566,175.838943 
	C186.373947,180.215515 184.201157,182.472870 179.180984,182.272064 
	C169.367935,181.879562 159.526520,182.055878 149.700241,182.211014 
	C146.296753,182.264725 144.285431,181.087891 143.722580,177.698227 
	C143.153671,174.271957 142.131409,170.843094 142.123154,167.413422 
	C142.021011,124.932930 142.067230,82.452095 142.080643,39.971348 
	C142.081009,38.807739 142.025894,37.627354 142.192001,36.483143 
	C143.862106,24.977419 143.930481,24.928837 155.509995,24.926996 
	C163.672974,24.925699 171.839340,25.065989 179.997375,24.865395 
	C183.691116,24.774570 185.701859,26.266146 186.263855,29.760241 
	C186.893738,33.676598 187.822342,37.616791 187.835510,41.549244 
	C187.957108,77.865784 187.908752,114.182899 187.909790,150.999786 
z"/>
<path fill="#050505" opacity="1.000000" stroke="none" 
	d="
M80.747818,104.999924 
	C80.741150,96.505249 80.646065,88.509399 80.753265,80.516258 
	C80.855942,72.860970 82.334023,71.437607 89.727524,71.416824 
	C98.888077,71.391075 108.056740,71.630264 117.205673,71.302315 
	C121.173409,71.160080 123.137253,72.759300 123.986641,76.235741 
	C124.455437,78.154457 124.827393,80.155762 124.830551,82.120499 
	C124.878181,111.767464 124.863358,141.414536 124.836052,171.061569 
	C124.834526,172.716232 124.758774,174.402802 124.437691,176.018936 
	C123.600677,180.231842 121.625114,182.535675 116.624458,182.302948 
	C107.151131,181.862076 97.635925,181.955078 88.152061,182.259903 
	C83.359337,182.413925 81.464958,180.158737 80.992615,175.941391 
	C80.789436,174.127319 80.768761,172.286133 80.767265,170.457184 
	C80.749603,148.804764 80.751266,127.152344 80.747818,104.999924 
z"/>
<path fill="#050505" opacity="1.000000" stroke="none" 
	d="
M62.580578,180.875946 
	C60.670818,181.490570 59.085690,182.105072 57.494980,182.119888 
	C48.168289,182.206696 38.840187,182.178192 29.512781,182.137878 
	C24.054213,182.114288 22.532623,180.763397 22.100134,175.139771 
	C21.807024,171.328476 21.849981,167.486969 21.843155,163.658798 
	C21.817913,149.500885 21.743612,135.342087 21.868586,121.185234 
	C21.946234,112.389496 22.957497,111.532295 31.604395,111.525772 
	C39.766037,111.519615 47.927719,111.505569 56.089321,111.523224 
	C63.809029,111.539917 64.668053,112.401817 64.667984,120.044388 
	C64.667847,135.534851 64.658173,151.025299 64.652718,166.515762 
	C64.651779,169.180786 64.873978,171.870483 64.581177,174.502960 
	C64.351097,176.571548 63.485771,178.569473 62.580578,180.875946 
z"/>
</svg>