<svg version="1.1" id="Layer_1" xmlns="http://www.w3.org/2000/svg" xmlns:xlink="http://www.w3.org/1999/xlink" x="0px" y="0px"
	 width="100%" viewBox="0 0 199 199" enable-background="new 0 0 199 199" xml:space="preserve">
<path fill="#F9F9F9" opacity="1.000000" stroke="none" 
	d="
M139.000000,200.000000 
	C92.666672,200.000000 46.833340,200.000000 1.000006,200.000000 
	C1.000004,133.666672 1.000004,67.333344 1.000002,1.000015 
	C67.333321,1.000010 133.666641,1.000010 199.999969,1.000005 
	C199.999985,67.333321 199.999985,133.666641 200.000000,199.999969 
	C179.833328,200.000000 159.666672,200.000000 139.000000,200.000000 
M17.945147,169.635773 
	C19.687462,171.014435 21.380688,173.507385 23.180246,173.586685 
	C33.112873,174.024261 43.072105,173.941132 53.020313,173.843048 
	C54.362244,173.829819 55.693424,172.726288 57.352230,171.615784 
	C57.962128,171.091141 58.572025,170.566483 59.743019,170.041870 
	C59.869579,169.369156 59.996140,168.696457 60.054565,167.085083 
	C60.092720,147.294830 60.191319,127.504242 60.076187,107.714890 
	C60.064583,105.720634 58.760551,103.733902 57.872799,100.971443 
	C57.309631,100.678604 56.748035,100.133682 56.183060,100.130157 
	C44.942879,100.059944 33.701984,100.014359 22.462456,100.108734 
	C21.622183,100.115791 20.791080,101.214920 19.692949,102.300278 
	C19.395140,102.518242 19.097332,102.736214 18.234600,102.954025 
	C18.128048,103.630341 18.021498,104.306648 17.942682,105.738091 
	C17.756248,106.459602 17.569815,107.181107 16.727346,108.268608 
	C16.518856,108.879005 16.129644,109.488968 16.128185,110.099861 
	C16.086716,127.451523 16.063311,144.803360 16.130436,162.154800 
	C16.134243,163.138840 16.932604,164.119812 17.716206,165.794708 
	C17.832426,166.823090 17.948645,167.851486 17.945147,169.635773 
M139.303879,146.472702 
	C139.682648,152.605255 139.881714,158.756088 140.502365,164.864059 
	C140.926743,169.040436 143.108200,171.205399 147.880844,170.928619 
	C155.013947,170.514969 162.188812,170.821426 169.345901,170.821457 
	C180.254593,170.821487 181.365967,169.735764 181.783798,158.660553 
	C181.802612,158.161911 181.788437,157.661972 181.788437,157.162643 
	C181.788040,116.217415 181.823883,75.272102 181.723923,34.327118 
	C181.715088,30.715456 180.961365,27.079111 180.288605,23.504103 
	C179.767029,20.732540 178.065170,19.416443 174.963257,19.472294 
	C165.479019,19.643068 155.987305,19.659058 146.503784,19.469891 
	C143.177750,19.403547 141.368652,20.792994 140.912949,23.802711 
	C140.219086,28.385292 139.411041,33.013897 139.394333,37.625652 
	C139.263992,73.577095 139.311523,109.529190 139.303879,146.472702 
M76.218788,93.499985 
	C76.220604,115.813911 76.194496,138.127930 76.263702,160.441635 
	C76.271347,162.908142 76.571838,165.438187 77.189140,167.821548 
	C77.911308,170.609726 79.664986,172.228317 82.966339,172.175629 
	C92.788567,172.018814 102.615669,172.058517 112.439369,172.162704 
	C115.664459,172.196915 117.541885,170.772385 118.087082,167.746628 
	C118.762680,163.997131 119.639503,160.205994 119.659348,156.428802 
	C119.795837,130.452118 119.780968,104.474197 119.678047,78.497215 
	C119.662376,74.541847 119.026840,70.577873 118.516716,66.638771 
	C118.044151,62.989716 116.107948,61.139889 112.129562,61.221020 
	C103.307541,61.400921 94.479393,61.279083 85.653740,61.282162 
	C77.922493,61.284863 76.455666,62.598347 76.266144,70.520020 
	C76.090950,77.842857 76.222488,85.173035 76.218788,93.499985 
z"/>
<path fill="#464646" opacity="1.000000" stroke="none" 
	d="
M139.304001,145.976898 
	C139.311523,109.529190 139.263992,73.577095 139.394333,37.625652 
	C139.411041,33.013897 140.219086,28.385292 140.912949,23.802711 
	C141.368652,20.792994 143.177750,19.403547 146.503784,19.469891 
	C155.987305,19.659058 165.479019,19.643068 174.963257,19.472294 
	C178.065170,19.416443 179.767029,20.732540 180.288605,23.504103 
	C180.961365,27.079111 181.715088,30.715456 181.723923,34.327118 
	C181.823883,75.272102 181.788040,116.217415 181.788437,157.162643 
	C181.788437,157.661972 181.802612,158.161911 181.783798,158.660553 
	C181.365967,169.735764 180.254593,170.821487 169.345901,170.821457 
	C162.188812,170.821426 155.013947,170.514969 147.880844,170.928619 
	C143.108200,171.205399 140.926743,169.040436 140.502365,164.864059 
	C139.881714,158.756088 139.682648,152.605255 139.304001,145.976898 
z"/>
<path fill="#474747" opacity="1.000000" stroke="none" 
	d="
M76.218864,92.999985 
	C76.222488,85.173035 76.090950,77.842857 76.266144,70.520020 
	C76.455666,62.598347 77.922493,61.284863 85.653740,61.282162 
	C94.479393,61.279083 103.307541,61.400921 112.129562,61.221020 
	C116.107948,61.139889 118.044151,62.989716 118.516716,66.638771 
	C119.026840,70.577873 119.662376,74.541847 119.678047,78.497215 
	C119.780968,104.474197 119.795837,130.452118 119.659348,156.428802 
	C119.639503,160.205994 118.762680,163.997131 118.087082,167.746628 
	C117.541885,170.772385 115.664459,172.196915 112.439369,172.162704 
	C102.615669,172.058517 92.788567,172.018814 82.966339,172.175629 
	C79.664986,172.228317 77.911308,170.609726 77.189140,167.821548 
	C76.571838,165.438187 76.271347,162.908142 76.263702,160.441635 
	C76.194496,138.127930 76.220604,115.813911 76.218864,92.999985 
z"/>
<path fill="#060606" opacity="1.000000" stroke="none" 
	d="
M18.799522,102.954178 
	C19.097332,102.736214 19.395140,102.518242 20.296146,102.062668 
	C33.284996,101.797935 45.670650,101.770805 58.056305,101.743668 
	C58.760551,103.733902 60.064583,105.720634 60.076187,107.714890 
	C60.191319,127.504242 60.092720,147.294830 59.881561,167.764374 
	C59.533009,168.976379 59.357468,169.509109 59.181923,170.041840 
	C58.572025,170.566483 57.962128,171.091141 56.727158,171.784973 
	C46.029331,171.949295 35.949360,172.151062 25.888710,171.799667 
	C23.249989,171.707504 20.671186,169.899750 18.064865,168.879868 
	C17.948645,167.851486 17.832426,166.823090 17.643341,164.984375 
	C17.508108,145.416901 17.445744,126.659760 17.383379,107.902618 
	C17.569815,107.181107 17.756248,106.459602 18.179508,105.195023 
	C18.544062,104.086021 18.671793,103.520103 18.799522,102.954178 
z"/>
<path fill="#D1D1D1" opacity="1.000000" stroke="none" 
	d="
M17.055363,108.085617 
	C17.445744,126.659760 17.508108,145.416901 17.465820,164.638123 
	C16.932604,164.119812 16.134243,163.138840 16.130436,162.154800 
	C16.063311,144.803360 16.086716,127.451523 16.128185,110.099861 
	C16.129644,109.488968 16.518856,108.879005 17.055363,108.085617 
z"/>
<path fill="#D1D1D1" opacity="1.000000" stroke="none" 
	d="
M18.005005,169.257812 
	C20.671186,169.899750 23.249989,171.707504 25.888710,171.799667 
	C35.949360,172.151062 46.029331,171.949295 56.565834,172.040909 
	C55.693424,172.726288 54.362244,173.829819 53.020313,173.843048 
	C43.072105,173.941132 33.112873,174.024261 23.180246,173.586685 
	C21.380688,173.507385 19.687462,171.014435 18.005005,169.257812 
z"/>
<path fill="#D1D1D1" opacity="1.000000" stroke="none" 
	d="
M57.964554,101.357559 
	C45.670650,101.770805 33.284996,101.797935 20.427528,101.815720 
	C20.791080,101.214920 21.622183,100.115791 22.462456,100.108734 
	C33.701984,100.014359 44.942879,100.059944 56.183060,100.130157 
	C56.748035,100.133682 57.309631,100.678604 57.964554,101.357559 
z"/>
<path fill="#D1D1D1" opacity="1.000000" stroke="none" 
	d="
M18.517061,102.954102 
	C18.671793,103.520103 18.544062,104.086021 18.165638,104.817459 
	C18.021498,104.306648 18.128048,103.630341 18.517061,102.954102 
z"/>
<path fill="#D1D1D1" opacity="1.000000" stroke="none" 
	d="
M59.462471,170.041855 
	C59.357468,169.509109 59.533009,168.976379 59.915627,168.233704 
	C59.996140,168.696457 59.869579,169.369156 59.462471,170.041855 
z"/>
</svg>