<svg version="1.1" id="Layer_1" xmlns="http://www.w3.org/2000/svg" xmlns:xlink="http://www.w3.org/1999/xlink" x="0px" y="0px"
	 width="100%" viewBox="0 0 209 209" enable-background="new 0 0 209 209" xml:space="preserve">
<path fill="#F8F8F8" opacity="1.000000" stroke="none" 
	d="
M149.000000,210.000000 
	C99.333336,210.000000 50.166672,210.000000 1.000007,210.000000 
	C1.000004,140.333344 1.000004,70.666679 1.000002,1.000016 
	C70.666656,1.000011 140.333313,1.000011 209.999969,1.000005 
	C209.999985,70.666649 209.999985,140.333298 210.000000,209.999969 
	C189.833328,210.000000 169.666672,210.000000 149.000000,210.000000 
M124.607605,164.375824 
	C124.734879,163.731812 124.972931,163.087906 124.973465,162.443787 
	C124.994843,136.532272 125.008072,110.620720 124.956139,84.709312 
	C124.953674,83.478119 124.349426,82.248138 123.973572,80.163170 
	C123.116554,76.741882 122.259537,73.320587 121.045563,69.341690 
	C120.390648,68.462440 119.735741,67.583191 118.863052,65.954338 
	C117.442726,65.677315 116.024086,65.170769 114.601807,65.160385 
	C105.125771,65.091194 95.645111,65.286713 86.174171,65.056992 
	C82.039131,64.956696 79.941818,66.823517 79.111130,70.504730 
	C78.603691,72.753448 78.147308,75.075981 78.142410,77.366379 
	C78.078812,107.125977 78.021278,136.886276 78.216537,166.644730 
	C78.237198,169.792953 79.345078,173.221588 80.888947,175.997040 
	C82.681808,179.220123 85.791061,180.187485 90.011490,177.278168 
	C97.640091,177.336716 105.268684,177.395264 113.143723,178.100922 
	C115.909744,179.018906 118.760590,180.223358 120.256325,175.533646 
	C120.553253,175.036972 120.850189,174.540298 121.869133,173.881409 
	C122.591866,170.912338 123.314606,167.943253 124.607605,164.375824 
M142.663406,157.475098 
	C143.193268,162.249512 143.620773,167.038315 144.289001,171.793274 
	C144.733551,174.956543 146.756927,176.045670 149.968262,175.959763 
	C157.124893,175.768265 164.290222,175.901627 171.451996,175.901031 
	C183.877090,175.899994 184.772476,175.000427 184.952011,162.345169 
	C184.954376,162.178650 184.953064,162.012054 184.953079,161.845505 
	C184.957794,120.706932 184.990509,79.568306 184.911377,38.429893 
	C184.905380,35.309280 184.224701,32.167660 183.640366,29.076880 
	C183.081345,26.120003 181.451859,24.664318 178.077774,24.745426 
	C168.756104,24.969501 159.420074,25.017565 150.101395,24.741282 
	C146.249664,24.627087 144.442078,26.344719 143.960526,29.668730 
	C143.318100,34.103355 142.709717,38.593395 142.698944,43.061111 
	C142.607834,80.868401 142.656174,118.676025 142.663406,157.475098 
M63.457649,114.679382 
	C63.092999,107.324577 62.329830,106.560501 55.346134,106.560478 
	C46.863304,106.560463 38.380474,106.559906 29.897644,106.561302 
	C22.103071,106.562576 20.762278,107.803589 20.669992,115.789467 
	C20.560442,125.269043 20.597775,134.751007 20.646698,144.231537 
	C20.692163,153.041580 20.740191,161.853699 20.977369,170.659775 
	C21.099176,175.182220 23.291155,177.486023 28.256239,177.328400 
	C37.062843,177.048859 45.884727,177.251556 54.700218,177.250977 
	C61.929554,177.250488 63.429993,175.811218 63.444443,168.535492 
	C63.479465,150.904572 63.457661,133.273544 63.457649,114.679382 
z"/>
<path fill="#444444" opacity="1.000000" stroke="none" 
	d="
M142.663025,156.979324 
	C142.656174,118.676025 142.607834,80.868401 142.698944,43.061111 
	C142.709717,38.593395 143.318100,34.103355 143.960526,29.668730 
	C144.442078,26.344719 146.249664,24.627087 150.101395,24.741282 
	C159.420074,25.017565 168.756104,24.969501 178.077774,24.745426 
	C181.451859,24.664318 183.081345,26.120003 183.640366,29.076880 
	C184.224701,32.167660 184.905380,35.309280 184.911377,38.429893 
	C184.990509,79.568306 184.957794,120.706932 184.953079,161.845505 
	C184.953064,162.012054 184.954376,162.178650 184.952011,162.345169 
	C184.772476,175.000427 183.877090,175.899994 171.451996,175.901031 
	C164.290222,175.901627 157.124893,175.768265 149.968262,175.959763 
	C146.756927,176.045670 144.733551,174.956543 144.289001,171.793274 
	C143.620773,167.038315 143.193268,162.249512 142.663025,156.979324 
z"/>
<path fill="#030303" opacity="1.000000" stroke="none" 
	d="
M112.897285,177.453796 
	C105.268684,177.395264 97.640091,177.336716 89.171593,177.185547 
	C82.119987,176.836777 80.220421,174.989349 79.794952,168.756134 
	C79.738396,167.927582 79.770348,167.092651 79.770348,166.260666 
	C79.770317,136.473785 79.764946,106.686890 79.789505,76.900024 
	C79.790863,75.247879 79.961769,73.584770 80.192039,71.946190 
	C80.713158,68.238144 82.697662,66.617882 86.641457,66.683945 
	C97.451660,66.865028 108.267326,66.719925 119.080826,66.703949 
	C119.735741,67.583191 120.390648,68.462440 121.199173,70.055710 
	C121.805954,76.865669 122.576088,82.957748 122.650139,89.058281 
	C122.837555,104.497276 122.913017,119.943481 122.650307,135.380280 
	C122.430901,148.272858 121.668861,161.156189 121.147125,174.043625 
	C120.850189,174.540298 120.553253,175.036972 119.762123,175.941177 
	C117.144371,176.717072 115.020828,177.085434 112.897285,177.453796 
z"/>
<path fill="#030303" opacity="1.000000" stroke="none" 
	d="
M63.458202,115.160980 
	C63.457661,133.273544 63.479465,150.904572 63.444443,168.535492 
	C63.429993,175.811218 61.929554,177.250488 54.700218,177.250977 
	C45.884727,177.251556 37.062843,177.048859 28.256239,177.328400 
	C23.291155,177.486023 21.099176,175.182220 20.977369,170.659775 
	C20.740191,161.853699 20.692163,153.041580 20.646698,144.231537 
	C20.597775,134.751007 20.560442,125.269043 20.669992,115.789467 
	C20.762278,107.803589 22.103071,106.562576 29.897644,106.561302 
	C38.380474,106.559906 46.863304,106.560463 55.346134,106.560478 
	C62.329830,106.560501 63.092999,107.324577 63.458202,115.160980 
z"/>
<path fill="#C4C4C4" opacity="1.000000" stroke="none" 
	d="
M118.971939,66.329147 
	C108.267326,66.719925 97.451660,66.865028 86.641457,66.683945 
	C82.697662,66.617882 80.713158,68.238144 80.192039,71.946190 
	C79.961769,73.584770 79.790863,75.247879 79.789505,76.900024 
	C79.764946,106.686890 79.770317,136.473785 79.770348,166.260666 
	C79.770348,167.092651 79.738396,167.927582 79.794952,168.756134 
	C80.220421,174.989349 82.119987,176.836777 88.718277,177.276337 
	C85.791061,180.187485 82.681808,179.220123 80.888947,175.997040 
	C79.345078,173.221588 78.237198,169.792953 78.216537,166.644730 
	C78.021278,136.886276 78.078812,107.125977 78.142410,77.366379 
	C78.147308,75.075981 78.603691,72.753448 79.111130,70.504730 
	C79.941818,66.823517 82.039131,64.956696 86.174171,65.056992 
	C95.645111,65.286713 105.125771,65.091194 114.601807,65.160385 
	C116.024086,65.170769 117.442726,65.677315 118.971939,66.329147 
z"/>
<path fill="#C4C4C4" opacity="1.000000" stroke="none" 
	d="
M121.508133,173.962524 
	C121.668861,161.156189 122.430901,148.272858 122.650307,135.380280 
	C122.913017,119.943481 122.837555,104.497276 122.650139,89.058281 
	C122.576088,82.957748 121.805954,76.865669 121.377647,70.334518 
	C122.259537,73.320587 123.116554,76.741882 123.970154,81.056313 
	C123.990273,109.624367 124.013802,137.299271 124.037338,164.974182 
	C123.314606,167.943253 122.591866,170.912338 121.508133,173.962524 
z"/>
<path fill="#FFFFFF" opacity="1.000000" stroke="none" 
	d="
M124.322472,164.675003 
	C124.013802,137.299271 123.990273,109.624367 123.996086,81.483521 
	C124.349426,82.248138 124.953674,83.478119 124.956139,84.709312 
	C125.008072,110.620720 124.994843,136.532272 124.973465,162.443787 
	C124.972931,163.087906 124.734879,163.731812 124.322472,164.675003 
z"/>
<path fill="#C4C4C4" opacity="1.000000" stroke="none" 
	d="
M113.020508,177.777344 
	C115.020828,177.085434 117.144371,176.717072 119.645599,176.206345 
	C118.760590,180.223358 115.909744,179.018906 113.020508,177.777344 
z"/>
</svg>